<svg width="20" height="20" viewBox="0 0 20 20" fill="none" xmlns="http://www.w3.org/2000/svg">
<g clip-path="url(#clip0_250_451)">
<path d="M9.20313 12.2812L2.75 18.8281C2.51563 19.0625 2.25 19.2188 1.96875 19.2969C2.60938 19.4844 3.3125 19.3281 3.8125 18.8281L9.78125 12.875C9.90625 12.75 10.1094 12.75 10.2188 12.875L9.64063 12.2812C9.53125 12.1562 9.32813 12.1562 9.20313 12.2812ZM12.8594 10.2188C12.7344 10.0938 12.7344 9.90625 12.8594 9.78125L18.8281 3.82812C19.5625 3.09375 19.5625 1.90625 18.8281 1.17187C18.0938 0.4375 16.9219 0.4375 16.1875 1.17187L10.2188 7.125C10.0938 7.25 9.90625 7.25 9.78125 7.125L3.82812 1.17187C3.09375 0.4375 1.90625 0.4375 1.17188 1.17187C1.10937 1.23437 1.0625 1.29687 1.01562 1.35937C1.04688 1.3125 1.07812 1.28125 1.10937 1.25C1.84375 0.53125 2.6875 0.859375 3.42187 1.59375L9.29688 7.60938C9.42188 7.73438 9.60937 7.73438 9.73437 7.60938L15.875 1.48437C16.6094 0.75 17.3437 0.6875 18.0781 1.42188C18.8125 2.15625 18.6875 2.92187 17.9531 3.65625L11.8125 9.78125C11.6875 9.90625 11.6875 10.0938 11.8125 10.2188C11.8125 10.2188 17.7656 16.1875 17.75 16.1875C18.4844 16.9219 18.7656 17.75 18.0313 18.4844C17.2969 19.2188 16.375 19.0312 15.6406 18.3125L16.1719 18.8438C16.9062 19.5781 18.0938 19.5781 18.8281 18.8438C19.5625 18.1094 19.5625 16.9375 18.8281 16.2031C18.8281 16.1875 12.8594 10.2188 12.8594 10.2188Z" fill="#CC3333"/>
<path d="M18.0313 18.4844C18.7656 17.75 18.4844 16.9219 17.75 16.1875C17.7656 16.1875 11.8125 10.2188 11.8125 10.2188C11.6875 10.0938 11.6875 9.90625 11.8125 9.78125L17.9531 3.65625C18.6875 2.92188 18.8125 2.15625 18.0781 1.42188C17.3437 0.687505 16.6094 0.750005 15.875 1.48438L9.73438 7.60938C9.60938 7.73438 9.42188 7.73438 9.29688 7.60938L3.42187 1.59375C2.6875 0.85938 1.84375 0.531255 1.10937 1.25C1.07812 1.28125 1.04687 1.3125 1.01562 1.35938C0.4375 2.09375 0.5 3.14063 1.17187 3.8125L7.125 9.78125C7.25 9.90625 7.25 10.1094 7.125 10.2188L1.17187 16.1719C0.4375 16.9063 0.4375 18.0938 1.17187 18.8281C1.40625 19.0625 1.67187 19.2188 1.95312 19.2969C2.23437 19.2031 2.51562 19.0469 2.73437 18.8281L9.1875 12.2813C9.3125 12.1563 9.51563 12.1563 9.625 12.2813L10.2031 12.875L15.625 18.3125C16.375 19.0313 17.2969 19.2188 18.0313 18.4844Z" fill="#F44336"/>
<path opacity="0.2" d="M8.59375 8.8125C8.42188 8.5625 3.54687 3.64063 3.54687 3.64063C3.54687 3.64063 3.1875 3.23438 2.8125 3.51563C2.46875 3.78125 2.64062 4.1875 2.82812 4.39063C3.01562 4.59375 7.35937 9.03125 7.57812 9.21875C7.78125 9.40625 8.1875 9.4375 8.4375 9.3125C8.6875 9.1875 8.71875 8.98438 8.59375 8.8125Z" fill="white"/>
<path opacity="0.2" d="M1.90625 3.48437C2.19102 3.48437 2.42188 3.25352 2.42188 2.96875C2.42188 2.68398 2.19102 2.45312 1.90625 2.45312C1.62148 2.45312 1.39062 2.68398 1.39062 2.96875C1.39062 3.25352 1.62148 3.48437 1.90625 3.48437Z" fill="white"/>
<path opacity="0.2" d="M11.2656 12.7812C11.4375 13.0312 16.3906 17.875 16.3906 17.875C16.3906 17.875 16.75 18.2812 17.125 17.9844C17.4688 17.7187 17.2813 17.3125 17.0938 17.1094C16.9063 16.9062 12.5 12.5312 12.2813 12.3437C12.0781 12.1562 11.6719 12.1406 11.4219 12.2656C11.1719 12.3906 11.1406 12.6094 11.2656 12.7812Z" fill="white"/>
</g>
<defs>
<clipPath id="clip0_250_451">
<rect width="20" height="20" fill="white"/>
</clipPath>
</defs>
</svg>
