<svg width="20" height="20" viewBox="0 0 20 20" fill="none" xmlns="http://www.w3.org/2000/svg">
<path d="M4.85333 3.02667L10 8.17334L15.12 3.05334C15.2331 2.93296 15.3693 2.83666 15.5206 2.77022C15.6718 2.70378 15.8348 2.66856 16 2.66667C16.3536 2.66667 16.6928 2.80715 16.9428 3.0572C17.1929 3.30724 17.3333 3.64638 17.3333 4.00001C17.3364 4.16347 17.3061 4.32585 17.2442 4.47718C17.1823 4.62851 17.0901 4.76559 16.9733 4.88001L11.7867 10L16.9733 15.1867C17.1931 15.4017 17.3219 15.6928 17.3333 16C17.3333 16.3536 17.1929 16.6928 16.9428 16.9428C16.6928 17.1929 16.3536 17.3333 16 17.3333C15.8301 17.3404 15.6605 17.312 15.5022 17.2501C15.3438 17.1881 15.2 17.0938 15.08 16.9733L10 11.8267L4.86667 16.96C4.75401 17.0764 4.61942 17.1693 4.47067 17.2333C4.32192 17.2974 4.16195 17.3314 4 17.3333C3.64638 17.3333 3.30724 17.1929 3.05719 16.9428C2.80714 16.6928 2.66667 16.3536 2.66667 16C2.66356 15.8365 2.69389 15.6742 2.75579 15.5228C2.8177 15.3715 2.90988 15.2344 3.02667 15.12L8.21333 10L3.02667 4.81334C2.80691 4.59835 2.67805 4.30722 2.66667 4.00001C2.66667 3.64638 2.80714 3.30724 3.05719 3.0572C3.30724 2.80715 3.64638 2.66667 4 2.66667C4.32 2.67067 4.62667 2.80001 4.85333 3.02667Z" fill="url(#paint0_linear_106_324)"/>
    <defs>
        <linearGradient id="paint0_linear_106_324" x1="1.25" y1="10.2857" x2="19.2286" y2="10.2857" gradientUnits="userSpaceOnUse">
            <stop stop-color="#3E79E5"/>
            <stop offset="1" stop-color="#01B8E3"/>
        </linearGradient>
    </defs>
</svg>
