<svg width="20" height="20" viewBox="0 0 20 20" fill="none" xmlns="http://www.w3.org/2000/svg">
<path d="M15 10.8317H10.8333V14.9983C10.8333 15.2193 10.7455 15.4313 10.5893 15.5876C10.433 15.7439 10.221 15.8317 10 15.8317C9.77899 15.8317 9.56703 15.7439 9.41075 15.5876C9.25447 15.4313 9.16667 15.2193 9.16667 14.9983V10.8317H5C4.77899 10.8317 4.56703 10.7439 4.41075 10.5876C4.25447 10.4313 4.16667 10.2193 4.16667 9.99833C4.16667 9.77731 4.25447 9.56535 4.41075 9.40907C4.56703 9.25279 4.77899 9.16499 5 9.16499H9.16667V4.99833C9.16667 4.77731 9.25447 4.56535 9.41075 4.40907C9.56703 4.25279 9.77899 4.16499 10 4.16499C10.221 4.16499 10.433 4.25279 10.5893 4.40907C10.7455 4.56535 10.8333 4.77731 10.8333 4.99833V9.16499H15C15.221 9.16499 15.433 9.25279 15.5893 9.40907C15.7455 9.56535 15.8333 9.77731 15.8333 9.99833C15.8333 10.2193 15.7455 10.4313 15.5893 10.5876C15.433 10.7439 15.221 10.8317 15 10.8317Z" fill="url(#paint0_linear_106_324)"/>
    <defs>
        <linearGradient id="paint0_linear_106_324" x1="1.25" y1="10.2857" x2="19.2286" y2="10.2857" gradientUnits="userSpaceOnUse">
            <stop stop-color="#3E79E5"/>
            <stop offset="1" stop-color="#01B8E3"/>
        </linearGradient>
    </defs>
</svg>
