<svg width="20" height="20" viewBox="0 0 20 20" fill="none" xmlns="http://www.w3.org/2000/svg">
<path d="M12.5 9.16667V9.175M4.31083 6.98167C3.94533 6.70076 3.66462 6.32426 3.49972 5.89378C3.33482 5.4633 3.29215 4.99561 3.37643 4.5424C3.46071 4.08919 3.66866 3.66811 3.97729 3.32569C4.28593 2.98328 4.68323 2.73286 5.12528 2.60213C5.56733 2.47139 6.03693 2.46542 6.48216 2.58489C6.92739 2.70435 7.33092 2.94459 7.64816 3.27905C7.96539 3.61351 8.18397 4.02918 8.27974 4.4801C8.37551 4.93102 8.34474 5.39964 8.19083 5.83417" stroke="url(#paint0_linear_106_324)" stroke-width="1.5" stroke-linecap="round" stroke-linejoin="round"/>
<path d="M13.3333 3.33334V6.50251C14.3646 7.09934 15.1498 8.04375 15.5483 9.16668H16.6658C16.8868 9.16668 17.0988 9.25447 17.2551 9.41075C17.4114 9.56704 17.4992 9.779 17.4992 10V11.6667C17.4992 11.8877 17.4114 12.0997 17.2551 12.2559C17.0988 12.4122 16.8868 12.5 16.6658 12.5H15.5475C15.2675 13.2917 14.7917 14 14.1658 14.5608V16.25C14.1658 16.5815 14.0341 16.8995 13.7997 17.1339C13.5653 17.3683 13.2474 17.5 12.9158 17.5C12.5843 17.5 12.2664 17.3683 12.0319 17.1339C11.7975 16.8995 11.6658 16.5815 11.6658 16.25V15.7642C11.3905 15.8105 11.1117 15.8336 10.8325 15.8333H7.49917C7.21994 15.8336 6.94119 15.8105 6.66583 15.7642V16.25C6.66583 16.5815 6.53414 16.8995 6.29972 17.1339C6.0653 17.3683 5.74735 17.5 5.41583 17.5C5.08431 17.5 4.76637 17.3683 4.53195 17.1339C4.29753 16.8995 4.16583 16.5815 4.16583 16.25V14.5608C3.4108 13.8858 2.87856 12.9974 2.63957 12.0132C2.40057 11.029 2.46609 9.99549 2.82745 9.04936C3.18881 8.10323 3.82897 7.28915 4.6632 6.71487C5.49742 6.14059 6.48638 5.83318 7.49917 5.83334H9.5825L13.3333 3.33334Z" stroke="url(#paint0_linear_106_324)" stroke-width="1.5" stroke-linecap="round" stroke-linejoin="round"/>
    <defs>
        <linearGradient id="paint0_linear_106_324" x1="1.25" y1="10.2857" x2="19.2286" y2="10.2857" gradientUnits="userSpaceOnUse">
            <stop stop-color="#3E79E5"/>
            <stop offset="1" stop-color="#01B8E3"/>
        </linearGradient>
    </defs>
</svg>
